<svg width="50" height="50" viewBox="0 0 50 50" fill="none" xmlns="http://www.w3.org/2000/svg">
<path opacity="0.2" d="M39.0618 10.9375V40.625C39.0618 41.0394 38.8971 41.4368 38.6041 41.7299C38.3111 42.0229 37.9137 42.1875 37.4993 42.1875H12.4993C12.0849 42.1875 11.6874 42.0229 11.3944 41.7299C11.1014 41.4368 10.9368 41.0394 10.9368 40.625V10.9375L39.0618 10.9375Z" fill="black"/>
<path d="M42.1867 10.9375L7.81171 10.9375" stroke="black" stroke-width="2" stroke-linecap="round" stroke-linejoin="round"/>
<path d="M20.3125 20.3125V32.8125" stroke="black" stroke-width="2" stroke-linecap="round" stroke-linejoin="round"/>
<path d="M29.6875 20.3125V32.8125" stroke="black" stroke-width="2" stroke-linecap="round" stroke-linejoin="round"/>
<path d="M39.0618 10.9375V40.625C39.0618 41.0394 38.8971 41.4368 38.6041 41.7299C38.3111 42.0229 37.9137 42.1875 37.4993 42.1875H12.4993C12.0849 42.1875 11.6874 42.0229 11.3944 41.7299C11.1014 41.4368 10.9368 41.0394 10.9368 40.625V10.9375" stroke="black" stroke-width="2" stroke-linecap="round" stroke-linejoin="round"/>
<path d="M32.8125 10.9375V7.8125C32.8125 6.9837 32.4833 6.18884 31.8972 5.60279C31.3112 5.01674 30.5163 4.6875 29.6875 4.6875H20.3125C19.4837 4.6875 18.6888 5.01674 18.1028 5.60279C17.5167 6.18884 17.1875 6.9837 17.1875 7.8125V10.9375" stroke="black" stroke-width="2" stroke-linecap="round" stroke-linejoin="round"/>
</svg>
